<?xml version="1.0" standalone="no"?>
<!DOCTYPE svg PUBLIC "-//W3C//DTD SVG 20010904//EN"
 "http://www.w3.org/TR/2001/REC-SVG-20010904/DTD/svg10.dtd">
<svg version="1.0" xmlns="http://www.w3.org/2000/svg"
 width="512.000000pt" height="512.000000pt" viewBox="0 0 512.000000 512.000000"
 preserveAspectRatio="xMidYMid meet">
<metadata>
Created by potrace 1.11, written by Peter Selinger 2001-2013
</metadata>
<g transform="translate(0.000000,512.000000) scale(0.100000,-0.100000)"
fill="#000000" stroke="none">
<path d="M2689 5076 c-2 -2 -42 -6 -89 -10 -47 -3 -103 -8 -125 -10 -48 -7
-126 -18 -140 -22 -5 -1 -27 -4 -47 -8 -224 -36 -526 -135 -763 -251 -727
-355 -1255 -1013 -1429 -1781 -50 -221 -64 -368 -61 -614 2 -113 6 -218 9
-235 3 -16 10 -64 16 -105 47 -350 184 -708 385 -1009 178 -267 438 -519 685
-666 36 -22 72 -44 80 -50 20 -16 50 -26 50 -17 0 4 -12 15 -28 24 -238 152
-311 207 -456 347 -316 307 -540 698 -650 1136 -14 55 -30 132 -36 170 -6 39
-13 80 -15 91 -18 107 -25 396 -12 551 33 410 177 822 411 1178 337 512 822
882 1430 1092 104 36 255 77 320 87 21 4 41 8 45 10 3 2 31 7 61 11 30 4 58 9
61 11 4 2 28 6 55 9 27 3 72 8 99 11 104 11 163 14 275 13 162 0 477 -16 489
-23 15 -10 161 -16 161 -7 0 27 -293 62 -556 67 -122 2 -223 2 -225 0z"/>
<path d="M1510 4702 c-116 -65 -134 -76 -140 -82 -3 -3 -32 -23 -65 -45 -115
-77 -261 -200 -386 -324 -104 -105 -159 -169 -297 -346 -26 -33 -116 -173
-161 -249 -146 -249 -260 -527 -309 -756 -19 -88 -24 -116 -38 -225 -15 -119
-9 -384 11 -510 3 -22 8 -53 11 -70 6 -39 50 -215 70 -280 62 -199 160 -420
272 -610 39 -67 180 -283 197 -302 5 -6 26 -34 45 -61 19 -28 44 -56 55 -63
19 -12 19 -11 1 17 -11 16 -45 65 -76 109 -210 295 -374 631 -460 940 -35 125
-35 128 -56 250 -25 148 -28 183 -28 350 -2 317 40 551 154 855 63 171 204
430 314 576 17 23 40 54 51 70 11 15 25 32 30 38 6 6 33 38 60 71 93 111 222
235 400 384 81 67 275 198 408 275 26 15 47 29 47 31 0 13 -33 0 -110 -43z"/>
<path d="M2768 4624 c-2 -1 -41 -5 -88 -9 -47 -4 -96 -8 -110 -10 -71 -9 -127
-18 -145 -22 -11 -2 -29 -5 -40 -7 -170 -27 -463 -128 -659 -227 -352 -179
-633 -422 -853 -739 -178 -257 -307 -570 -339 -825 -2 -16 -6 -37 -9 -45 -20
-69 -25 -420 -7 -545 6 -44 14 -105 17 -135 13 -134 29 -222 55 -320 15 -58
31 -116 35 -130 3 -14 -3 -5 -15 20 -36 76 -129 406 -122 433 1 4 -2 26 -7 50
-29 129 -33 514 -7 653 2 10 7 39 11 64 12 83 65 288 91 357 15 37 27 73 28
78 1 6 9 26 18 45 8 19 26 60 39 90 48 113 215 388 276 455 10 11 41 47 68 80
80 95 181 191 310 293 66 53 130 107 143 119 29 31 54 81 47 93 -9 15 -56 12
-105 -5 -39 -14 -191 -112 -215 -139 -5 -6 -32 -29 -60 -51 -27 -22 -88 -78
-135 -126 -333 -333 -564 -773 -650 -1239 -13 -68 -14 -76 -27 -180 -14 -116
-6 -540 12 -592 2 -7 6 -31 9 -53 31 -238 149 -568 291 -811 293 -502 721
-867 1250 -1065 61 -23 247 -76 295 -84 19 -3 51 -10 70 -14 129 -32 504 -48
680 -29 554 60 1070 330 1431 748 144 167 262 360 221 360 -14 0 -57 -41 -54
-51 4 -17 -320 -334 -428 -419 -200 -158 -408 -278 -630 -365 -88 -34 -104
-37 -220 -41 -69 -2 -176 -6 -239 -9 -63 -3 -112 -2 -108 1 3 4 21 8 39 10
138 15 448 97 528 139 14 8 63 33 110 56 259 128 494 342 662 604 60 94 138
239 138 258 0 38 -29 18 -78 -56 -30 -43 -64 -91 -77 -106 -12 -14 -44 -51
-70 -81 -173 -198 -408 -373 -657 -488 -163 -76 -409 -145 -593 -168 -84 -10
-375 -11 -465 -1 -247 26 -630 158 -806 277 -25 16 -47 30 -49 30 -10 0 -153
106 -225 165 -242 202 -449 509 -556 825 -36 106 -57 146 -76 142 -11 -2 -18
9 -23 35 -3 21 -15 74 -25 118 -11 44 -22 91 -24 105 -3 14 -10 48 -17 75 -18
74 -16 238 6 345 12 62 15 77 19 100 9 55 50 190 57 190 5 0 4 -12 -2 -26 -5
-15 -8 -29 -5 -31 2 -3 0 -18 -5 -36 -21 -75 -30 -347 -15 -487 56 -514 325
-983 733 -1278 179 -130 436 -245 619 -278 15 -3 30 -7 34 -9 3 -2 34 -6 69
-10 34 -4 72 -8 84 -11 32 -6 235 -5 287 1 59 8 72 13 66 24 -3 5 -61 9 -128
9 -141 0 -166 3 -356 38 -13 3 -77 22 -142 44 -541 177 -965 638 -1109 1205
-20 79 -23 96 -36 185 -12 79 -22 234 -17 265 7 56 71 289 108 400 100 297
249 572 395 729 40 43 69 99 60 115 -15 24 -61 -10 -148 -112 -18 -21 -33 -33
-33 -28 0 5 44 56 99 113 72 76 125 120 200 168 208 133 226 145 236 167 5 13
47 40 111 72 300 149 586 216 924 215 112 0 276 -10 289 -18 3 -2 29 -7 56
-10 28 -3 95 -16 150 -30 377 -93 743 -297 1030 -577 138 -134 159 -148 172
-113 28 75 -213 341 -468 514 -179 123 -499 259 -692 296 -12 2 -33 6 -47 9
-109 23 -166 31 -305 44 -96 8 -370 7 -420 -2 -16 -4 -50 -8 -75 -11 -285 -35
-629 -165 -885 -334 -159 -106 -356 -287 -455 -417 -25 -33 -75 -98 -111 -145
-100 -129 -157 -215 -210 -314 -27 -50 -49 -87 -49 -82 0 15 82 199 102 228
10 14 18 29 18 32 0 13 100 169 164 256 69 94 280 314 365 381 24 19 49 39 55
45 6 6 54 40 106 77 551 381 1301 528 1965 385 50 -11 101 -21 114 -24 54 -11
224 -69 326 -112 435 -181 790 -474 1058 -874 71 -106 97 -129 97 -85 0 68
-192 338 -359 505 -51 51 -89 86 -201 180 -125 105 -393 258 -590 336 -174 69
-442 141 -595 161 -20 2 -54 7 -74 9 -103 14 -191 19 -338 21 -90 1 -164 1
-165 -1z"/>
<path d="M2439 3771 c0 -20 -1 -287 -2 -593 l-2 -558 123 0 122 0 1 33 c0 17
1 284 1 592 l1 560 -122 1 -121 2 -1 -37z"/>
<path d="M2770 3211 l0 -601 125 0 124 0 0 376 c0 207 2 379 5 381 4 5 47 -80
111 -222 13 -27 44 -94 69 -149 l46 -98 93 140 c50 78 97 149 103 158 9 16 15
12 55 -30 104 -112 209 -287 253 -419 66 -199 69 -390 10 -657 -70 -314 -213
-633 -397 -890 -62 -86 -3 -21 236 260 65 77 200 258 254 341 122 188 201 378
222 529 9 69 7 288 -3 330 -4 14 -9 41 -12 60 -11 70 -76 247 -124 339 -63
119 -146 233 -235 325 -71 74 -212 186 -233 186 -7 0 -12 4 -12 9 0 5 -9 11
-19 14 -13 3 -22 -3 -29 -17 -5 -11 -40 -84 -77 -161 l-68 -140 -29 115 c-16
63 -31 122 -32 130 -17 69 -40 151 -51 177 -15 36 -20 38 -220 78 -71 14 -138
28 -147 31 -17 5 -18 -28 -18 -595z"/>
<path d="M895 2409 c-8 -13 -8 -171 0 -251 5 -53 43 -244 52 -268 3 -8 7 -19
9 -25 34 -137 157 -370 263 -495 56 -67 157 -168 195 -195 16 -11 34 -26 41
-33 8 -6 16 -12 20 -12 3 0 21 -11 38 -24 37 -28 111 -66 128 -66 21 0 -13 30
-61 55 -127 64 -292 221 -395 375 -91 135 -185 346 -210 465 -33 161 -43 235
-50 370 -6 98 -15 129 -30 104z"/>
<path d="M1385 2402 c-16 -4 -17 -15 -12 -120 17 -354 209 -691 543 -952 46
-36 155 -102 231 -138 158 -77 309 -115 463 -116 l75 -1 0 578 c0 319 -3 583
-6 588 -3 6 -58 8 -124 7 l-118 -3 0 -427 c0 -236 -1 -428 -3 -428 -12 0 -226
100 -234 110 -3 4 -12 9 -20 12 -9 3 -52 33 -96 66 -231 174 -381 426 -432
724 l-16 97 -117 3 c-64 2 -124 1 -134 0z"/>
<path d="M2770 1644 l0 -594 123 0 122 0 -2 587 c0 324 -1 591 -2 595 -1 4
-55 7 -121 7 l-120 -1 0 -594z"/>
</g>
</svg>
