<svg xmlns="http://www.w3.org/2000/svg" width="20" height="20" viewBox="0 0 20 20"><path fill="#FFF" fill-rule="nonzero" d="M10 0C4.5 0 0 4.5 0 10s4.5 10 10 10 10-4.5 10-10S15.55 0 10 0zm4.602 14.45c-.2.3-.55.398-.852.199-2.351-1.45-5.3-1.75-8.8-.95-.353.102-.649-.148-.75-.449-.102-.352.147-.649.449-.75 3.8-.852 7.102-.5 9.7 1.101.351.149.402.547.253.848zM15.8 11.7c-.25.351-.7.5-1.051.25C12.05 10.3 7.95 9.8 4.8 10.8c-.398.102-.85-.102-.949-.5-.101-.398.102-.852.5-.95 3.649-1.1 8.148-.55 11.25 1.353.297.148.45.648.2.996zm.098-2.801C12.699 7 7.349 6.797 4.297 7.75c-.5.149-1-.149-1.149-.602-.148-.5.148-1 .602-1.149 3.55-1.05 9.399-.851 13.101 1.352.45.25.602.852.352 1.3-.254.348-.852.497-1.304.247z"/></svg>