<svg xmlns="http://www.w3.org/2000/svg" width="20" height="20" viewBox="0 0 20 20"><path fill="#ffffff" d="M18.6 16.9c-2.2 1.7-5.5 2.5-8.3 2.5-3.9 0-7.4-1.4-10.1-3.9-.2-.2 0-.4.2-.3C3.3 17 6.9 18 10.6 18c2.5 0 5.2-.5 7.7-1.6.4-.2.7.3.3.5z"/><path fill="#ffffff" d="M19 16.2c-.3-.3-1.8-.2-2.4-.1-.2 0-.2-.2-.1-.3 1.2-.8 3.1-.6 3.4-.3.2.3-.1 2.2-1.2 3.2-.2.1-.3.1-.3-.1.4-.7.9-2.1.6-2.4zM14.3 14.4c.5-.4 1.4-1.2 1.9-1.6.2-.2.2-.4 0-.7-.5-.6-.9-1.1-.9-2.3V6c0-1.6.1-3.1-1.1-4.2C13.3.9 11.7.6 10.5.6 8.1.5 5.5 1.4 5 4.3c-.1.3.1.5.3.5l2.4.3c.2 0 .4-.2.4-.5.2-1 1-1.5 2-1.5.5 0 1.1.2 1.4.6.3.5.3 1.2.3 1.8v.3c-1.4.2-3.3.3-4.6.8-1.5.7-2.6 2-2.6 4 0 2.6 1.6 3.8 3.7 3.8 1.7 0 2.7-.4 4-1.8.4.6.6 1 1.4 1.6.2.3.4.3.6.2zm-2.5-6c0 1 0 1.8-.5 2.6-.4.7-1 1.1-1.7 1.1-.9 0-1.5-.7-1.5-1.8 0-2.1 1.9-2.5 3.7-2.5v.6z"/></svg>
