<svg xmlns="http://www.w3.org/2000/svg" width="33.98" height="19.85" viewBox="0 0 33.98 19.85"><path fill="#fff" d="M19.53 9.54a5.06 5.06 0 0 0 2.07.39 2.91 2.91 0 0 0 1.9-.58 1.78 1.78 0 0 0 .73-1.52 1.81 1.81 0 0 0-.31-1.11 2.75 2.75 0 0 0-1.15-.73l-1.07-.42a2.07 2.07 0 0 1-.84-.45.75.75 0 0 1-.23-.58c0-.57.42-.87 1.3-.87a4.68 4.68 0 0 1 1.42.24 2.81 2.81 0 0 0 .31.08c.11 0 .19-.08.19-.23v-.4a.57.57 0 0 0-.08-.27.37.37 0 0 0-.23-.18 5.43 5.43 0 0 0-1.72-.31 3 3 0 0 0-1.79.54 1.69 1.69 0 0 0-.69 1.41 2 2 0 0 0 1.49 1.91l1.15.45a2.21 2.21 0 0 1 .76.42.67.67 0 0 1 .18.58.83.83 0 0 1-.34.73 1.82 1.82 0 0 1-1 .27 6.29 6.29 0 0 1-1.88-.27 1.73 1.73 0 0 0-.34-.08c-.11 0-.15.08-.15.23v.38a.62.62 0 0 0 .07.27.54.54 0 0 0 .25.1zM14.11 9.91a4.41 4.41 0 0 0 2.6-.92l.07.46a.18.18 0 0 0 .12.19H17.7c.19 0 .27-.08.27-.27V3.09c0-.19-.08-.26-.27-.26h-.78c-.23 0-.31.11-.31.26v5.08a3.57 3.57 0 0 1-1.94.65 1.16 1.16 0 0 1-.92-.34 1.65 1.65 0 0 1-.27-1.07V3.09c0-.19-.07-.26-.26-.26h-.81c-.19 0-.26.07-.26.26v4.74a2.09 2.09 0 0 0 .49 1.52 2 2 0 0 0 1.47.56zM25.64 2.83c-.19 0-.27.07-.27.26v6.34c0 .19.08.27.27.27h.8c.19 0 .27-.08.27-.27V3.09a.24.24 0 0 0-.27-.26zM.56 9.74h.8c.19 0 .27-.08.27-.27V4.31a3.91 3.91 0 0 1 2-.61.91.91 0 0 1 .81.35 1.72 1.72 0 0 1 .26 1v4.38c0 .19.08.27.27.27h.8c.19 0 .27-.08.27-.27V4.31a3.73 3.73 0 0 1 2-.61.91.91 0 0 1 .81.35 1.72 1.72 0 0 1 .26 1v4.38c0 .19.08.27.27.27h.8c.19 0 .27-.08.27-.27V4.66a2 2 0 0 0-.53-1.49 1.94 1.94 0 0 0-1.45-.54 4.49 4.49 0 0 0-2.67 1 1.72 1.72 0 0 0-1.72-1 4.5 4.5 0 0 0-2.52.88l-.07-.42a.18.18 0 0 0-.13-.18.27.27 0 0 0-.19 0H.56c-.19 0-.27 0-.27.22v6.34c0 .19.08.27.27.27zM31.41 9.85a3.75 3.75 0 0 0 1.51-.27c.12 0 .19-.07.23-.15s0-.15 0-.27v-.38c0-.19-.08-.27-.19-.27a.4.4 0 0 0-.19 0 4.54 4.54 0 0 1-1.22.19 2.08 2.08 0 0 1-1.61-.57 2.66 2.66 0 0 1-.49-1.79v-.15a3 3 0 0 1 .53-1.84 2.1 2.1 0 0 1 1.64-.57 3.63 3.63 0 0 1 1.16.13.55.55 0 0 0 .23 0c.11 0 .19-.08.19-.27v-.32a.46.46 0 0 0-.08-.27.83.83 0 0 0-.2-.14 6.93 6.93 0 0 0-1.45-.23 3.19 3.19 0 0 0-2.48 1 3.81 3.81 0 0 0-.88 2.67 3.7 3.7 0 0 0 .81 2.56 3.2 3.2 0 0 0 2.49.94zM26.02 1.6a.77.77 0 0 0 .61-.23.74.74 0 0 0 .23-.57.67.67 0 0 0-.19-.57.9.9 0 0 0-.65-.23.84.84 0 0 0-.61.23.78.78 0 0 0-.23.57.72.72 0 0 0 .23.57.8.8 0 0 0 .61.23zM30.15 14.78a33.81 33.81 0 0 1-12.83 2.63 33.68 33.68 0 0 1-16.8-4.5.51.51 0 0 0-.23 0c-.27 0-.42.3-.15.57a24.88 24.88 0 0 0 16.78 6.37 24.19 24.19 0 0 0 13.74-4.2c.67-.45.14-1.14-.51-.87z"/><path fill="#fff" d="M33.85 12.68a4 4 0 0 0-2.25-.46 6.77 6.77 0 0 0-3.78 1c-.35.23-.27.53.07.49 1.19-.15 3.86-.45 4.36.16s-.54 3.13-1 4.23c-.11.35.16.46.5.23 1.99-1.65 2.52-5.12 2.1-5.65z"/></svg>