<svg xmlns="http://www.w3.org/2000/svg" width="20" height="20" viewBox="0 0 20 20"><g fill="#FFF" fill-rule="nonzero"><path d="M9.697 2.352c2.59 0 2.898.012 3.916.057.948.042 1.459.2 1.8.333.45.175.776.387 1.113.724.341.341.55.663.727 1.114.133.341.292.856.334 1.8.045 1.022.057 1.33.057 3.916 0 2.588-.012 2.898-.057 3.917-.042.948-.2 1.459-.334 1.8-.174.45-.386.776-.723 1.113-.342.341-.663.55-1.114.727-.34.133-.856.292-1.799.334-1.023.045-1.33.057-3.917.057-2.587 0-2.898-.012-3.917-.057-.947-.042-1.458-.2-1.8-.334a3 3 0 0 1-1.113-.723 3.042 3.042 0 0 1-.728-1.114c-.132-.34-.291-.856-.333-1.799-.045-1.023-.057-1.33-.057-3.917 0-2.587.012-2.898.057-3.917.042-.947.2-1.458.333-1.8.175-.45.387-.776.724-1.113a3.04 3.04 0 0 1 1.114-.728c.341-.132.856-.291 1.8-.333 1.018-.045 1.325-.057 3.916-.057h.001zm0-1.746c-2.633 0-2.962.012-3.996.057-1.03.045-1.74.212-2.353.45-.64.25-1.181.58-1.719 1.122A4.747 4.747 0 0 0 .508 3.951C.269 4.568.102 5.273.057 6.303.012 7.341 0 7.67 0 10.303s.012 2.962.057 3.996c.045 1.03.212 1.74.45 2.353.251.64.58 1.181 1.122 1.719a4.74 4.74 0 0 0 1.716 1.117c.617.24 1.322.406 2.352.451 1.034.046 1.364.057 3.996.057 2.633 0 2.963-.011 3.997-.057 1.03-.045 1.738-.212 2.352-.45a4.731 4.731 0 0 0 1.716-1.118 4.744 4.744 0 0 0 1.117-1.716c.239-.617.406-1.322.451-2.352.046-1.034.057-1.364.057-3.996 0-2.633-.011-2.962-.057-3.997-.045-1.03-.212-1.738-.45-2.352a4.55 4.55 0 0 0-1.11-1.723 4.74 4.74 0 0 0-1.716-1.118c-.618-.239-1.322-.405-2.352-.45-1.038-.05-1.368-.062-4-.062l-.001.001z"/><path d="M9.697 5.322a4.982 4.982 0 1 0 4.981 4.981c0-2.75-2.23-4.981-4.981-4.981zm0 8.212a3.231 3.231 0 1 1 0-6.462 3.231 3.231 0 0 1 0 6.462zM16.038 5.125a1.163 1.163 0 1 1-2.326 0 1.163 1.163 0 0 1 2.326 0z"/></g></svg>