<svg xmlns="http://www.w3.org/2000/svg" width="28" height="20" viewBox="0 0 28 20"><path fill="#FFF" fill-rule="nonzero" d="M27.543 4.223s-.272-1.919-1.108-2.761C25.375.353 24.19.348 23.647.282 19.756 0 13.913 0 13.913 0h-.01S8.06 0 4.169.283C3.625.348 2.44.353 1.38 1.462.543 2.304.277 4.222.277 4.222S0 6.474 0 8.729v2.109c0 2.25.277 4.505.277 4.505s.273 1.918 1.104 2.76c1.06 1.11 2.451 1.071 3.07 1.191 2.229.212 9.462.277 9.462.277s5.848-.01 9.74-.287c.543-.066 1.728-.07 2.787-1.18.837-.842 1.109-2.76 1.109-2.76s.277-2.25.277-4.506V8.73a43.12 43.12 0 0 0-.283-4.506zm-16.51 9.174V5.576L18.55 9.5l-7.517 3.897z"/></svg>