<svg xmlns="http://www.w3.org/2000/svg" width="35.8" height="20" viewBox="0 0 35.8 20"><path fill="#fff" d="M21.9 20h6.5v-2h-6.5v2zM7.3 20h6.5v-2H7.3v2zM0 20h6.5v-2H0v2zm14.6 0h6.5v-2h-6.5v2zm14.6 0h6.5v-2h-6.5v2zm0-2.6h6.5v-2h-6.5v2zm-14.6 0h6.5v-2h-6.5v2zM0 17.4h6.5v-2H0v2zm7.3 0h6.5v-2H7.3v2zm14.7 0h6.5v-2h-6.6l.1 2zm0-2.5h6.5v-2h-6.6l.1 2zm-14.6 0h6.5v-2H7.3l.1 2zm-7.4 0h6.5v-2H0v2zm14.7 0h6.5v-2h-6.6l.1 2zm14.6 0h6.5v-2h-6.5v2zm0-2.6h6.5v-2h-6.5v2zm-14.6 0h6.5v-2h-6.6l.1 2zm-14.6 0h6.5v-2H0l.1 2zm21.9 0h6.5v-2h-6.6l.1 2zm0-2.6h6.5v-2h-6.6l.1 2zM.1 9.7h6.5v-2H0l.1 2zm14.6 0h6.5v-2h-6.6l.1 2zm14.6 0h6.5v-2h-6.5v2zM14.6 7.2h6.5v-2h-6.5v2zm14.6 0h6.5v-2h-6.5v2zM14.6 4.6h6.5v-2h-6.5v2zm14.6 0h6.5v-2h-6.5v2zm0-2.6h6.5V0h-6.5v2z"/></svg>
