<svg xmlns="http://www.w3.org/2000/svg" width="20" height="20" viewBox="0 0 20 20"><path fill="#fff" d="M10 0C4.478 0-.001 4.476-.001 10c0 5.521 4.478 10 10.001 10s10-4.479 10-10c0-5.524-4.478-10-10-10zM8.227 13.947c-1.072 0-2.144-.355-2.968-1.067-1.012-.874-1.612-2.066-1.691-3.353a4.605 4.605 0 0 1 1.197-3.389C5.717 5.085 7.422 3.45 7.494 3.38c.463-.443 1.196-.426 1.638.037s.427 1.199-.037 1.643c-.018.017-1.718 1.647-2.614 2.637a2.3 2.3 0 0 0-.599 1.689c.041.658.357 1.274.892 1.738.703.608 2.092.742 2.961-.036.516-.466 1.143-1.148 1.15-1.155a1.157 1.157 0 0 1 1.638-.068c.471.433.502 1.168.069 1.641-.029.029-.71.77-1.31 1.31-.838.752-1.947 1.131-3.055 1.131zm7.008-.083c-.953 1.052-2.658 2.688-2.73 2.758a1.158 1.158 0 0 1-1.638-.037 1.163 1.163 0 0 1 .037-1.643c.017-.017 1.719-1.647 2.614-2.638a2.298 2.298 0 0 0 .599-1.689c-.04-.658-.357-1.274-.892-1.737-.703-.608-2.092-.744-2.96.037-.518.463-1.144 1.147-1.15 1.153a1.159 1.159 0 0 1-1.638.07 1.165 1.165 0 0 1-.068-1.643c.028-.031.708-.772 1.309-1.311 1.649-1.482 4.351-1.511 6.022-.064 1.012.876 1.613 2.067 1.69 3.354a4.605 4.605 0 0 1-1.195 3.39z"/></svg>