<svg xmlns="http://www.w3.org/2000/svg" width="20" height="20" viewBox="0 0 20 20"><path fill="#fff" d="M17.421 10.043c-.353 0-.69.069-.997.193-.205-2.234-2.154-3.986-4.531-3.986-.582 0-1.146.11-1.647.296-.195.072-.246.147-.246.291v7.866a.3.3 0 0 0 .276.293l7.146.004C18.846 15 20 13.89 20 12.522s-1.155-2.479-2.579-2.479zM7.813 15h.625l.313-4.379-.313-4.371h-.625L7.5 10.621zm-1.875 0h-.625L5 11.821l.313-3.071h.625l.313 3.125zm-3.125 0h.625l.313-2.5-.313-2.5h-.625L2.5 12.5zm-2.5-1.25h.625l.313-1.25-.313-1.25H.313L0 12.5z"/></svg>