<svg xmlns="http://www.w3.org/2000/svg" width="26" height="20" viewBox="0 0 26 20"><path fill="#FFF" fill-rule="nonzero" d="M24.534 2.278c-.87.389-1.81.648-2.792.763a4.89 4.89 0 0 0 2.139-2.69 9.785 9.785 0 0 1-3.088 1.182A4.863 4.863 0 0 0 17.242 0a4.861 4.861 0 0 0-4.737 5.968A13.804 13.804 0 0 1 2.482.885a4.859 4.859 0 0 0-.657 2.445c0 1.685.857 3.175 2.163 4.046a4.863 4.863 0 0 1-2.204-.606v.06a4.863 4.863 0 0 0 3.903 4.768 4.87 4.87 0 0 1-2.199.083 4.88 4.88 0 0 0 4.542 3.38 9.756 9.756 0 0 1-7.204 2.014 13.754 13.754 0 0 0 7.459 2.185c8.944 0 13.837-7.412 13.837-13.838 0-.212-.004-.421-.014-.63a9.79 9.79 0 0 0 2.426-2.513v-.001z"/></svg>