<svg xmlns="http://www.w3.org/2000/svg" width="20" height="20" viewBox="0 0 20 20"><path d="M15.9 19.7c-3.8 0-7.7-1.7-10.7-4.8C2 11.7.2 7.7.3 3.9v-.2l.1-.1c.3-.3.6-.6.8-.9 1-1 2.2-1.8 3.5-2.3.1 0 .3-.1.4-.1.5 0 1.2.2 1.4.7C7 2.3 7.6 4 8 5.6c.1.3 0 1.2-.5 1.5L6 8.1c0 .1-.1.2-.1.3 0 .3 0 .6.2.9.6.8 1.3 1.7 2.1 2.5s1.6 1.5 2.4 2.1c.4.3 1 .3 1.1.1l1-1.5c.2-.4 1-.5 1.3-.5h.2c2 .4 3.2.8 4.7 1.5.5.2.8 1.2.6 1.8-.5 1.3-1.3 2.5-2.3 3.5-.3.3-.6.6-.9.8l-.1.1h-.3zM1.2 4c0 3.6 1.6 7.3 4.5 10.2l.1.1c2.9 2.9 6.5 4.5 10.1 4.5h.1c.3-.2.5-.4.7-.7.9-.9 1.6-2 2.1-3.2v-.1c0-.3-.2-.6-.5-.7-1.2-.5-2.3-.9-4.1-1.3H13.9c-.2 0-.4.2-.5.3l-.8 1.3c-.4.7-1.6.8-2.4.1-.9-.6-1.7-1.4-2.5-2.2s-1.5-1.7-2.2-2.6c-.4-.4-.5-1-.4-1.5.1-.4.3-.7.6-.8L7 6.6c.1-.1.2-.3.3-.6v-.3c-.4-1.3-.9-2.8-1.4-4-.1-.3-.3-.5-.7-.5h-.1c-1.2.4-2.3 1.2-3.2 2.1l-.7.7z" fill="#fff"/></svg>
